<svg height="64" viewBox="0 0 128 128" width="64" xmlns="http://www.w3.org/2000/svg"><g><g><path d="m1.75 71.246h124.5a0 0 0 0 1 0 0v12.334a5 5 0 0 1 -5 5h-114.5a5 5 0 0 1 -5-5v-12.334a0 0 0 0 1 0 0z" fill="#607880"/><path d="m84.718 110h-41.436a17.42 17.42 0 0 0 10.008-15.764v-5.656h21.42v5.656a17.42 17.42 0 0 0 10.008 15.764z" fill="#4a6268"/><rect fill="#607880" height="7.42" rx="3.71" width="64.125" x="31.937" y="110"/><path d="m69.875 81.663h-11.75a1.75 1.75 0 0 1 0-3.5h11.75a1.75 1.75 0 0 1 0 3.5z" fill="#94e0da"/><path d="m6.75 10.58a5 5 0 0 0 -5 5v55.666h73.917v-60.666z" fill="#f4d844"/><path d="m121.25 10.58h-45.583v60.666h50.583v-55.666a5 5 0 0 0 -5-5z" fill="#94e0da"/><path d="m116.25 63h-30.583a1.75 1.75 0 0 1 0-3.5h30.583a1.75 1.75 0 0 1 0 3.5z" fill="#4a6268"/><path d="m116.25 52.671h-30.583a1.75 1.75 0 0 1 0-3.5h30.583a1.75 1.75 0 0 1 0 3.5z" fill="#4a6268"/><path d="m85.667 20.58h30.583v20.333h-30.583z" fill="#607880"/><path d="m85.667 34.667 11.083-4.334 19.5 6.834v3.746h-30.583z" fill="#f4d844"/><circle cx="108.313" cy="27.354" fill="#f4d844" r="2.75"/><g fill="#de6246"><path d="m65.667 30.463h-16.584a1.75 1.75 0 0 1 0-3.5h16.584a1.75 1.75 0 0 1 0 3.5z"/><path d="m40.917 30.463h-14.084a1.75 1.75 0 0 1 0-3.5h14.084a1.75 1.75 0 0 1 0 3.5z"/><path d="m65.667 54.863h-16.584a1.75 1.75 0 0 1 0-3.5h16.584a1.75 1.75 0 0 1 0 3.5z"/><path d="m40.917 54.863h-14.084a1.75 1.75 0 0 1 0-3.5h14.084a1.75 1.75 0 0 1 0 3.5z"/><path d="m65.667 38.6h-32.167a1.75 1.75 0 0 1 0-3.5h32.167a1.75 1.75 0 0 1 0 3.5z"/><path d="m40.583 46.729h-7.083a1.75 1.75 0 0 1 0-3.5h7.083a1.75 1.75 0 0 1 0 3.5z"/><path d="m26.833 46.729h-15.083a1.75 1.75 0 0 1 0-3.5h15.083a1.75 1.75 0 0 1 0 3.5z"/><path d="m40.583 22.33h-7.083a1.75 1.75 0 0 1 0-3.5h7.083a1.75 1.75 0 0 1 0 3.5z"/><path d="m26.833 22.33h-15.083a1.75 1.75 0 0 1 0-3.5h15.083a1.75 1.75 0 0 1 0 3.5z"/><path d="m65.667 63h-32.167a1.75 1.75 0 0 1 0-3.5h32.167a1.75 1.75 0 0 1 0 3.5z"/></g></g><g><path d="m69.875 81.663a1.75 1.75 0 0 0 0-3.5h-11.75a1.75 1.75 0 0 0 0 3.5z"/><path d="m75.667 32.3a1.749 1.749 0 0 0 -1.75 1.75v2.8a1.75 1.75 0 1 0 3.5 0v-2.8a1.749 1.749 0 0 0 -1.75-1.75z"/><path d="m121.25 8.83h-114.5a6.758 6.758 0 0 0 -6.75 6.75v68a1.75 1.75 0 0 0 3.5 0v-10.58h121v10.58a3.254 3.254 0 0 1 -3.25 3.25h-107.083a1.75 1.75 0 0 0 0 3.5h37.373v3.905a15.73 15.73 0 0 1 -8.68 14.015h-7.213a5.46 5.46 0 1 0 0 10.92h56.706a5.46 5.46 0 0 0 0-10.92h-7.213a15.73 15.73 0 0 1 -8.68-14.015v-3.905h44.79a6.758 6.758 0 0 0 6.75-6.75v-68a6.758 6.758 0 0 0 -6.75-6.75zm-26.938 104.88a1.961 1.961 0 0 1 -1.959 1.96h-56.706a1.96 1.96 0 1 1 0-3.92h56.706a1.961 1.961 0 0 1 1.959 1.96zm-15.25-5.46h-30.125a19.247 19.247 0 0 0 6.1-14.015v-3.905h17.923v3.905a19.25 19.25 0 0 0 6.102 14.015zm-1.645-38.75v-22.771a1.75 1.75 0 0 0 -3.5 0v22.771h-70.417v-53.92a3.254 3.254 0 0 1 3.25-3.25h67.167v11.837a1.75 1.75 0 0 0 3.5 0v-11.837h43.833a3.254 3.254 0 0 1 3.25 3.25v53.92z"/><path d="m116.25 59.5h-30.583a1.75 1.75 0 0 0 0 3.5h30.583a1.75 1.75 0 0 0 0-3.5z"/><path d="m116.25 49.171h-30.583a1.75 1.75 0 0 0 0 3.5h30.583a1.75 1.75 0 0 0 0-3.5z"/><path d="m116.25 18.83h-30.583a1.749 1.749 0 0 0 -1.75 1.75v20.333a1.749 1.749 0 0 0 1.75 1.75h30.583a1.749 1.749 0 0 0 1.75-1.75v-20.333a1.749 1.749 0 0 0 -1.75-1.75zm-1.75 3.5v12.37l-17.171-6.018a1.751 1.751 0 0 0 -1.217.021l-8.695 3.4v-9.773zm0 16.833h-27.083v-3.3l9.366-3.663 17.717 6.208z"/><circle cx="108.313" cy="27.354" r="2.75"/><path d="m65.667 26.963h-16.584a1.75 1.75 0 0 0 0 3.5h16.584a1.75 1.75 0 0 0 0-3.5z"/><path d="m40.917 26.963h-14.084a1.75 1.75 0 0 0 0 3.5h14.084a1.75 1.75 0 0 0 0-3.5z"/><path d="m65.667 51.363h-16.584a1.75 1.75 0 0 0 0 3.5h16.584a1.75 1.75 0 0 0 0-3.5z"/><path d="m42.667 53.113a1.749 1.749 0 0 0 -1.75-1.75h-14.084a1.75 1.75 0 0 0 0 3.5h14.084a1.749 1.749 0 0 0 1.75-1.75z"/><path d="m65.667 35.1h-32.167a1.75 1.75 0 0 0 0 3.5h32.167a1.75 1.75 0 0 0 0-3.5z"/><path d="m40.583 46.729a1.75 1.75 0 0 0 0-3.5h-7.083a1.75 1.75 0 0 0 0 3.5z"/><path d="m28.583 44.979a1.75 1.75 0 0 0 -1.75-1.75h-15.083a1.75 1.75 0 0 0 0 3.5h15.083a1.749 1.749 0 0 0 1.75-1.75z"/><path d="m33.5 22.33h7.083a1.75 1.75 0 0 0 0-3.5h-7.083a1.75 1.75 0 0 0 0 3.5z"/><path d="m11.75 22.33h15.083a1.75 1.75 0 0 0 0-3.5h-15.083a1.75 1.75 0 0 0 0 3.5z"/><path d="m65.667 59.5h-32.167a1.75 1.75 0 0 0 0 3.5h32.167a1.75 1.75 0 0 0 0-3.5z"/></g></g></svg>