<?xml version="1.0" encoding="UTF-8"?>
<svg xmlns="http://www.w3.org/2000/svg" xmlns:xlink="http://www.w3.org/1999/xlink" width="64pt" height="64pt" viewBox="0 0 64 64" version="1.1">
<g id="surface1">
<path style=" stroke:none;fill-rule:nonzero;fill:rgb(54.901961%,31.372549%,84.313725%);fill-opacity:1;" d="M 64 32 C 64 49.671875 49.671875 64 32 64 C 14.328125 64 0 49.671875 0 32 C 0 14.328125 14.328125 0 32 0 C 49.671875 0 64 14.328125 64 32 Z M 64 32 "/>
<path style=" stroke:none;fill-rule:nonzero;fill:rgb(45.098039%,23.529412%,72.54902%);fill-opacity:1;" d="M 38.519531 57.480469 C 20.84375 57.480469 6.519531 43.15625 6.519531 25.480469 C 6.519531 18.308594 8.878906 11.683594 12.867188 6.347656 C 5.054688 12.183594 0 21.5 0 32 C 0 49.671875 14.328125 64 32 64 C 42.5 64 51.816406 58.945312 57.652344 51.132812 C 52.316406 55.121094 45.691406 57.480469 38.519531 57.480469 Z M 38.519531 57.480469 "/>
<path style=" stroke:none;fill-rule:nonzero;fill:rgb(66.666667%,43.137255%,100%);fill-opacity:1;" d="M 36.746094 9.933594 C 36.597656 9.933594 36.445312 9.917969 36.296875 9.890625 C 34.890625 9.617188 33.445312 9.480469 32 9.480469 C 30.691406 9.480469 29.628906 8.421875 29.628906 7.109375 C 29.628906 5.800781 30.691406 4.742188 32 4.742188 C 33.746094 4.742188 35.492188 4.90625 37.195312 5.234375 C 38.480469 5.484375 39.320312 6.726562 39.070312 8.011719 C 38.851562 9.144531 37.859375 9.933594 36.746094 9.933594 Z M 36.746094 9.933594 "/>
<path style=" stroke:none;fill-rule:nonzero;fill:rgb(66.666667%,43.137255%,100%);fill-opacity:1;" d="M 56.632812 30.816406 C 55.472656 30.816406 54.460938 29.960938 54.289062 28.78125 C 53.332031 22.074219 49.4375 16.210938 43.605469 12.695312 C 42.484375 12.019531 42.121094 10.566406 42.796875 9.445312 C 43.472656 8.320312 44.929688 7.960938 46.050781 8.636719 C 53.109375 12.890625 57.820312 19.988281 58.984375 28.109375 C 59.167969 29.40625 58.269531 30.605469 56.972656 30.792969 C 56.859375 30.808594 56.746094 30.816406 56.632812 30.816406 Z M 56.632812 30.816406 "/>
<path style=" stroke:none;fill-rule:nonzero;fill:rgb(100%,100%,100%);fill-opacity:1;" d="M 47.40625 31.109375 C 48.226562 31.109375 48.890625 30.449219 48.890625 29.628906 C 48.890625 28.8125 48.226562 28.148438 47.40625 28.148438 L 46.132812 28.148438 L 46.488281 26.363281 C 46.652344 25.5625 46.128906 24.78125 45.328125 24.621094 C 44.515625 24.460938 43.746094 24.980469 43.585938 25.785156 L 43.113281 28.148438 L 40.207031 28.148438 L 40.5625 26.363281 C 40.722656 25.5625 40.203125 24.78125 39.402344 24.621094 C 38.59375 24.460938 37.820312 24.980469 37.660156 25.785156 L 37.183594 28.148438 L 35.554688 28.148438 C 34.738281 28.148438 34.074219 28.8125 34.074219 29.628906 C 34.074219 30.449219 34.738281 31.113281 35.554688 31.113281 L 36.59375 31.113281 L 36.238281 32.890625 L 34.371094 32.890625 C 33.550781 32.890625 32.890625 33.550781 32.890625 34.371094 C 32.890625 35.1875 33.550781 35.851562 34.371094 35.851562 L 35.644531 35.851562 L 35.289062 37.636719 C 35.128906 38.4375 35.648438 39.21875 36.449219 39.378906 C 36.546875 39.398438 36.644531 39.410156 36.742188 39.410156 C 37.433594 39.410156 38.050781 38.921875 38.191406 38.214844 L 38.667969 35.851562 L 41.570312 35.851562 L 41.214844 37.636719 C 41.054688 38.4375 41.574219 39.21875 42.375 39.378906 C 42.472656 39.398438 42.570312 39.410156 42.667969 39.410156 C 43.359375 39.410156 43.976562 38.921875 44.121094 38.214844 L 44.59375 35.851562 L 46.222656 35.851562 C 47.039062 35.851562 47.703125 35.1875 47.703125 34.371094 C 47.703125 33.550781 47.039062 32.890625 46.222656 32.890625 L 45.183594 32.890625 L 45.539062 31.113281 L 47.40625 31.113281 Z M 42.164062 32.890625 L 39.257812 32.890625 L 39.613281 31.109375 L 42.519531 31.109375 Z M 42.164062 32.890625 "/>
<path style=" stroke:none;fill-rule:nonzero;fill:rgb(100%,100%,100%);fill-opacity:1;" d="M 24.890625 24 C 26.285156 24 27.632812 24.425781 28.78125 25.226562 C 29.453125 25.695312 30.378906 25.53125 30.84375 24.859375 C 31.3125 24.1875 31.148438 23.265625 30.476562 22.796875 C 28.828125 21.644531 26.894531 21.035156 24.890625 21.035156 C 19.496094 21.035156 15.109375 25.421875 15.109375 30.816406 L 15.109375 33.183594 C 15.109375 38.578125 19.496094 42.960938 24.890625 42.960938 C 26.894531 42.960938 28.828125 42.355469 30.476562 41.203125 C 31.148438 40.734375 31.3125 39.8125 30.84375 39.140625 C 30.375 38.46875 29.453125 38.304688 28.78125 38.773438 C 27.632812 39.574219 26.285156 40 24.890625 40 C 21.128906 40 18.074219 36.941406 18.074219 33.183594 L 18.074219 30.816406 C 18.074219 27.058594 21.132812 24 24.890625 24 Z M 24.890625 24 "/>
</g>
</svg>
