<?xml version="1.0" encoding="UTF-8"?>
<svg xmlns="http://www.w3.org/2000/svg" xmlns:xlink="http://www.w3.org/1999/xlink" width="64pt" height="64pt" viewBox="0 0 64 64" version="1.1">
<g id="surface1">
<path style=" stroke:none;fill-rule:nonzero;fill:rgb(14.901961%,30.196078%,43.529412%);fill-opacity:1;" d="M 64 32 C 64 35.246094 63.515625 38.382812 62.617188 41.335938 C 61.578125 44.746094 59.988281 47.910156 57.949219 50.730469 C 55.039062 54.753906 51.21875 58.074219 46.789062 60.382812 C 45.484375 61.066406 44.125 61.660156 42.726562 62.160156 C 41.589844 62.5625 40.421875 62.902344 39.230469 63.179688 L 39.226562 63.179688 C 36.90625 63.714844 34.488281 64 32 64 C 26.808594 64 21.90625 62.765625 17.570312 60.570312 C 13.519531 58.519531 9.960938 55.632812 7.128906 52.132812 C 4.550781 48.957031 2.574219 45.277344 1.363281 41.265625 C 0.476562 38.332031 0 35.222656 0 32 C 0 14.328125 14.328125 0 32 0 C 49.671875 0 64 14.328125 64 32 Z M 64 32 "/>
<path style=" stroke:none;fill-rule:nonzero;fill:rgb(21.960784%,46.27451%,67.45098%);fill-opacity:1;" d="M 46.515625 13.972656 L 46.515625 29.757812 C 46.515625 33.476562 43.503906 36.488281 39.789062 36.488281 L 23.617188 36.488281 C 18.941406 36.488281 15.152344 40.277344 15.152344 44.953125 L 15.152344 52.703125 L 9.863281 52.703125 C 8.90625 52.703125 7.988281 52.515625 7.128906 52.132812 C 4.550781 48.957031 2.574219 45.277344 1.363281 41.265625 C 1.265625 40.277344 1.21875 39.21875 1.21875 38.097656 C 1.21875 28.289062 5.089844 23.488281 9.863281 23.488281 L 32.089844 23.488281 L 32.089844 21.207031 L 17.296875 21.207031 L 17.296875 13.972656 C 17.296875 10.300781 23.839844 7.320312 31.90625 7.320312 C 39.976562 7.320312 46.515625 10.296875 46.515625 13.972656 Z M 46.515625 13.972656 "/>
<path style=" stroke:none;fill-rule:nonzero;fill:rgb(94.901961%,94.901961%,94.901961%);fill-opacity:1;" d="M 26.355469 14.578125 C 26.355469 16.0625 25.148438 17.265625 23.664062 17.265625 C 22.179688 17.265625 20.976562 16.0625 20.976562 14.578125 C 20.976562 13.09375 22.179688 11.890625 23.664062 11.890625 C 25.148438 11.890625 26.355469 13.09375 26.355469 14.578125 Z M 26.355469 14.578125 "/>
<path style=" stroke:none;fill-rule:nonzero;fill:rgb(96.862745%,80.392157%,0%);fill-opacity:1;" d="M 62.867188 37.253906 C 62.867188 38.726562 62.78125 40.085938 62.617188 41.335938 C 61.578125 44.746094 59.988281 47.910156 57.949219 50.730469 C 56.820312 51.484375 55.554688 51.859375 54.222656 51.859375 L 32 51.859375 L 32 54.140625 L 46.789062 54.140625 L 46.789062 60.382812 C 45.484375 61.066406 44.125 61.660156 42.726562 62.160156 C 41.589844 62.5625 40.421875 62.902344 39.230469 63.179688 L 39.226562 63.179688 C 36.90625 63.714844 34.488281 64 32 64 C 26.808594 64 21.90625 62.765625 17.570312 60.570312 L 17.570312 45.589844 C 17.570312 41.875 20.585938 38.859375 24.300781 38.859375 L 40.472656 38.859375 C 45.144531 38.859375 48.933594 35.070312 48.933594 30.398438 L 48.933594 22.644531 L 54.222656 22.644531 C 58.996094 22.644531 62.867188 27.347656 62.867188 37.253906 Z M 62.867188 37.253906 "/>
<path style=" stroke:none;fill-rule:nonzero;fill:rgb(94.901961%,94.901961%,94.901961%);fill-opacity:1;" d="M 43.109375 60.769531 C 43.109375 61.28125 42.96875 61.753906 42.726562 62.160156 C 41.589844 62.5625 40.421875 62.902344 39.230469 63.179688 L 39.226562 63.179688 C 38.34375 62.742188 37.734375 61.828125 37.734375 60.769531 C 37.734375 59.285156 38.9375 58.082031 40.421875 58.082031 C 41.90625 58.082031 43.109375 59.285156 43.109375 60.769531 Z M 43.109375 60.769531 "/>
</g>
</svg>
